<?xml version="1.0" encoding="UTF-8" standalone="no"?>
<!DOCTYPE svg PUBLIC "-//W3C//DTD SVG 1.1//EN" "http://www.w3.org/Graphics/SVG/1.1/DTD/svg11.dtd">
<svg width="100%" height="100%" viewBox="0 0 128 128" version="1.1" xmlns="http://www.w3.org/2000/svg" xmlns:xlink="http://www.w3.org/1999/xlink" xml:space="preserve" xmlns:serif="http://www.serif.com/" style="fill-rule:evenodd;clip-rule:evenodd;stroke-linejoin:round;stroke-miterlimit:2;">
    <g transform="matrix(1.67136,0,0,1.67136,-368.501,-378.219)">
        <path d="M257.107,296.923C238.699,295.304 226.545,283.368 225.612,266.433C224.787,251.449 236.68,235.757 250.993,233.067C264.304,230.566 276.001,233.626 284.41,244.612C292.205,254.798 294.531,266.345 288.747,278.345C282.532,291.242 271.316,296.372 257.107,296.923Z" style="fill:rgb(10,12,29);fill-rule:nonzero;"/>
    </g>
    <g transform="matrix(1.67136,0,0,1.67136,-368.501,-378.219)">
        <path d="M279.468,256.759C284.586,267.755 279.112,277.028 272.879,281.543C271.041,282.874 269.2,282.883 267.261,282.035C262.944,280.147 259.153,277.575 256.43,273.244C256.338,272.705 256.319,272.485 256.068,272.028C255.836,271.791 255.809,271.64 255.881,271.613C255.168,269.123 254.977,266.349 258.317,266.446C264.158,266.617 267.707,262.862 271.803,259.858C274.011,258.239 275.88,255.789 279.468,256.759Z" style="fill:rgb(226,96,69);fill-rule:nonzero;"/>
    </g>
    <g transform="matrix(1.67136,0,0,1.67136,-368.501,-378.219)">
        <path d="M237.04,270.668C234.938,258.866 238.685,249.883 247.53,244.645C254.841,240.315 265.382,241.074 272.461,246.453C272.718,246.648 272.894,246.952 273.149,247.557C270.791,250.281 267.452,251.058 264.715,252.954C259.315,256.696 256.943,262.148 254.537,267.805C253.289,260.799 252.775,254.03 258.579,248.669C259.094,248.193 259.525,247.024 259.295,246.466C258.823,245.324 257.565,245.726 256.686,246.002C253.451,247.018 250.614,248.662 248.472,251.833C246.014,253.466 244.788,255.455 244.231,258.047C243.253,262.601 240.655,266.48 238.326,270.733C237.782,270.859 237.555,270.854 237.04,270.668Z" style="fill:rgb(219,224,223);fill-rule:nonzero;"/>
    </g>
    <g transform="matrix(1.67136,0,0,1.67136,-368.501,-378.219)">
        <path d="M254.168,268.057C255.782,256.971 262.448,250.964 272.798,247.957C273.191,247.909 273.098,247.993 273.054,247.948C273.262,248.274 273.574,248.58 274.288,248.849C277.323,250.68 278.513,253.521 279.763,256.663C274.875,257.361 272.416,261.643 268.735,263.953C265.548,265.952 262.927,268.685 258.529,267.483C256.178,266.841 256.221,269.163 255.971,271.174C254.726,270.895 254.549,269.601 254.168,268.057Z" style="fill:rgb(245,151,115);fill-rule:nonzero;"/>
    </g>
    <g transform="matrix(1.67136,0,0,1.67136,-368.501,-378.219)">
        <path d="M245.211,273.942C249.069,277.05 251.052,281.337 254.282,285.094C247.448,285.787 240.794,280.743 237.127,272.275C240.375,270.047 242.808,271.321 245.211,273.942Z" style="fill:rgb(44,98,147);fill-rule:nonzero;"/>
    </g>
    <g transform="matrix(1.67136,0,0,1.67136,-368.501,-378.219)">
        <path d="M245.526,273.452C242.757,274.119 240.703,271.447 237.469,271.882C237.085,271.92 237.083,271.922 237.09,271.918C236.923,271.682 236.75,271.45 236.774,270.833C239.786,266.565 241.857,262.321 242.971,257.655C243.597,255.035 244.112,252.436 247.831,252.025C246.038,256.814 243.966,261.6 244.963,267.498C245.112,268.132 245.245,268.321 245.217,268.816C245.197,270.434 245.337,271.745 245.526,273.452Z" style="fill:rgb(125,174,201);fill-rule:nonzero;"/>
    </g>
</svg>
