<?xml version="1.0" encoding="UTF-8" standalone="no"?><!DOCTYPE svg PUBLIC "-//W3C//DTD SVG 1.1//EN" "http://www.w3.org/Graphics/SVG/1.1/DTD/svg11.dtd"><svg width="100%" height="100%" viewBox="0 0 180 60" version="1.1" xmlns="http://www.w3.org/2000/svg" xmlns:xlink="http://www.w3.org/1999/xlink" xml:space="preserve" xmlns:serif="http://www.serif.com/" style="fill-rule:evenodd;clip-rule:evenodd;stroke-linejoin:round;stroke-miterlimit:2;"><g><g><rect x="31.863" y="18.804" width="7.731" height="9.341" style="fill:#373c38;"/><rect x="10.608" y="20.672" width="7.728" height="7.473" style="fill:#373c38;"/><rect x="21.428" y="11.331" width="7.728" height="16.815" style="fill:#373c38;"/><rect x="10.608" y="29.986" width="7.728" height="18.683" style="fill:#005caf;"/><rect x="31.863" y="29.986" width="7.731" height="16.815" style="fill:#005caf;"/><rect x="21.428" y="29.986" width="7.728" height="9.341" style="fill:#005caf;"/></g><g><g transform="matrix(1,0,0,1,-36.91,-5.7769)"><g transform="matrix(25,0,0,25,81.0929,39.4125)"><path d="M0.761,-0.286c0.063,-0.056 0.119,-0.115 0.168,-0.179c0.006,-0.008 0.009,-0.016 0.009,-0.025c0,-0.027 -0.028,-0.054 -0.055,-0.054c-0.012,0 -0.025,0.006 -0.034,0.021c-0.026,0.041 -0.055,0.08 -0.087,0.117l0,-0.221c-0.001,-0.053 -0.039,-0.089 -0.102,-0.091c-0.039,-0.001 -0.087,-0.002 -0.135,-0.002c0.01,-0.024 0.023,-0.06 0.023,-0.073c0,-0.029 -0.03,-0.043 -0.058,-0.043c-0.023,0 -0.045,0.01 -0.048,0.031c-0.003,0.021 -0.011,0.054 -0.02,0.085c-0.1,0 -0.174,0.002 -0.176,0.092c-0.001,0.032 -0.001,0.067 -0.001,0.105c-0,0.083 0.001,0.176 0.002,0.255c-0.037,0.003 -0.073,0.006 -0.108,0.008c-0.029,0.002 -0.043,0.024 -0.043,0.045c-0,0.022 0.015,0.044 0.046,0.044c0.022,0 0.185,-0.017 0.42,-0.061c-0.128,0.087 -0.277,0.15 -0.433,0.189c-0.028,0.007 -0.04,0.026 -0.04,0.044c-0,0.025 0.02,0.05 0.051,0.05c0.021,0 0.283,-0.073 0.531,-0.263c0,0.058 -0.001,0.107 -0.002,0.133c-0.001,0.041 -0.025,0.052 -0.061,0.052c-0.019,0 -0.042,-0.003 -0.066,-0.007c-0.003,-0.001 -0.006,-0.001 -0.009,-0.001c-0.028,0 -0.044,0.022 -0.044,0.045c-0,0.033 0.022,0.057 0.118,0.057c0.155,0 0.155,-0.112 0.155,-0.149c-0,-0.036 -0.001,-0.091 -0.001,-0.12l-0,-0.084Zm-0.424,-0.292c-0,-0.012 0.001,-0.023 0.001,-0.033c-0,-0.036 0.01,-0.037 0.163,-0.037c0.158,0 0.166,0 0.168,0.035c-0,0.01 0.001,0.022 0.001,0.035l-0.333,0Zm0.334,0.132l-0.334,0l-0,-0.063l0.334,0l-0,0.063Zm0.001,0.121c-0.1,0.017 -0.217,0.034 -0.333,0.047c-0,-0.031 -0.001,-0.064 -0.001,-0.098l0.334,0l-0,0.051Z" style="fill:#005caf;fill-rule:nonzero;"/></g><g transform="matrix(25,0,0,25,106.093,39.4125)"><path d="M0.6,-0.594c0.03,0 0.055,-0.028 0.055,-0.057c0,-0.015 -0.006,-0.029 -0.021,-0.041c-0.059,-0.045 -0.202,-0.093 -0.226,-0.093c-0.031,0 -0.053,0.028 -0.053,0.053c-0,0.015 0.008,0.03 0.028,0.036c0.057,0.018 0.138,0.053 0.185,0.09c0.011,0.008 0.022,0.012 0.032,0.012Zm0.303,0.427c0.03,-0 0.058,-0.027 0.058,-0.059c-0,-0.045 -0.093,-0.136 -0.208,-0.211c-0.011,-0.007 -0.022,-0.01 -0.032,-0.01c-0.028,-0 -0.051,0.022 -0.051,0.046c0,0.013 0.006,0.025 0.02,0.036c0.067,0.052 0.121,0.101 0.169,0.172c0.012,0.018 0.028,0.026 0.044,0.026Zm-0.138,0.02c-0,-0.057 -0.05,-0.058 -0.057,-0.058c-0.025,-0 -0.049,0.015 -0.049,0.051c0,0.109 -0.057,0.116 -0.14,0.116c-0.064,-0 -0.099,-0.01 -0.099,-0.053c0.001,-0.113 0.005,-0.292 0.01,-0.446l-0,-0.002c-0,-0.03 -0.026,-0.045 -0.051,-0.045c-0.025,0 -0.051,0.015 -0.051,0.047c-0.003,0.154 -0.008,0.347 -0.008,0.46c-0,0.119 0.09,0.132 0.193,0.132c0.104,-0 0.252,-0 0.252,-0.202Zm-0.623,0.025c0.056,-0.061 0.123,-0.215 0.123,-0.255c-0,-0.03 -0.027,-0.049 -0.054,-0.049c-0.02,-0 -0.041,0.011 -0.048,0.037c-0.023,0.079 -0.06,0.144 -0.111,0.201c-0.013,0.014 -0.018,0.028 -0.018,0.041c-0,0.028 0.025,0.05 0.055,0.05c0.018,-0 0.037,-0.007 0.053,-0.025Z" style="fill:#005caf;fill-rule:nonzero;"/></g><g transform="matrix(25,0,0,25,131.093,39.4125)"><path d="M0.882,-0.652c0.029,0 0.044,-0.022 0.044,-0.044c0,-0.021 -0.015,-0.043 -0.044,-0.043l-0.2,0.001l0,-0.053c0,-0.026 -0.023,-0.039 -0.046,-0.039c-0.023,0 -0.047,0.013 -0.047,0.039l0,0.053l-0.185,0l0,-0.053c0,-0.026 -0.023,-0.039 -0.045,-0.039c-0.024,0 -0.047,0.013 -0.047,0.039l0,0.053l-0.193,-0.001c-0.029,0 -0.044,0.022 -0.044,0.043c0,0.022 0.015,0.044 0.044,0.044l0.193,-0.001l0,0.04c0,0.025 0.022,0.038 0.045,0.038c0.023,-0 0.047,-0.014 0.047,-0.041l0,-0.037l0.185,0l0,0.04c0,0.025 0.023,0.038 0.046,0.038c0.023,-0 0.047,-0.014 0.047,-0.041l0,-0.037l0.2,0.001Zm0.007,0.381c0.031,0 0.05,-0.025 0.05,-0.051c0,-0.018 -0.01,-0.036 -0.033,-0.046c-0.116,-0.049 -0.219,-0.117 -0.314,-0.201c-0.034,-0.029 -0.066,-0.043 -0.097,-0.043c-0.032,0 -0.062,0.015 -0.088,0.043c-0.074,0.079 -0.197,0.175 -0.31,0.223c-0.023,0.01 -0.033,0.028 -0.033,0.047c0,0.025 0.018,0.049 0.048,0.049c0.049,0 0.236,-0.132 0.362,-0.263c0.01,-0.011 0.018,-0.016 0.026,-0.016c0.009,0 0.017,0.005 0.029,0.016c0.119,0.11 0.302,0.242 0.36,0.242Zm-0.084,0.293c0.026,0 0.051,-0.026 0.051,-0.055c0,-0.013 -0.005,-0.027 -0.017,-0.04c-0.057,-0.06 -0.165,-0.116 -0.19,-0.116c-0.026,0 -0.045,0.024 -0.045,0.048c0,0.015 0.008,0.029 0.026,0.038c0.053,0.025 0.106,0.062 0.139,0.105c0.011,0.014 0.024,0.02 0.036,0.02Zm-0.085,-0.262c0.027,0 0.041,-0.021 0.041,-0.042c-0,-0.02 -0.014,-0.041 -0.041,-0.041l-0.172,0.001l0,-0.075c0,-0.032 -0.023,-0.048 -0.046,-0.048c-0.022,0 -0.045,0.016 -0.045,0.048l0,0.075l-0.168,-0.001c-0.028,0 -0.043,0.021 -0.043,0.042c-0,0.021 0.014,0.041 0.042,0.041l0.169,-0.001l-0.001,0.262c-0,0.031 0.023,0.046 0.047,0.046c0.023,0 0.046,-0.015 0.046,-0.046l-0.001,-0.262l0.172,0.001Zm-0.33,0.099c-0,-0.026 -0.023,-0.05 -0.048,-0.05c-0.011,0 -0.023,0.005 -0.032,0.018c-0.037,0.051 -0.086,0.088 -0.143,0.11c-0.022,0.009 -0.032,0.026 -0.032,0.043c-0,0.025 0.021,0.051 0.05,0.051c0.039,0 0.205,-0.119 0.205,-0.172Z" style="fill-rule:nonzero;"/></g><g transform="matrix(25,0,0,25,156.093,39.4125)"><path d="M0.456,-0.102c0,0.052 -0.027,0.068 -0.065,0.068c-0.022,0 -0.047,-0.005 -0.072,-0.011c-0.004,-0.001 -0.007,-0.001 -0.011,-0.001c-0.028,0 -0.045,0.026 -0.045,0.051c0,0.031 0.016,0.058 0.125,0.058c0.129,0 0.168,-0.075 0.168,-0.147l0,-0.002l-0.002,-0.119l-0.003,-0.239c0.098,0.244 0.263,0.4 0.332,0.4c0.033,0 0.056,-0.027 0.056,-0.055c0,-0.017 -0.009,-0.035 -0.031,-0.046c-0.098,-0.049 -0.182,-0.144 -0.245,-0.25c0.001,0 0.002,0 0.003,-0.001c0.069,-0.041 0.145,-0.089 0.208,-0.141c0.016,-0.013 0.022,-0.027 0.022,-0.041c-0,-0.028 -0.028,-0.053 -0.056,-0.053c-0.011,0 -0.022,0.004 -0.032,0.013c-0.058,0.055 -0.121,0.105 -0.186,0.146c-0.039,-0.083 -0.063,-0.168 -0.068,-0.24l0,-0.042c0,-0.032 -0.024,-0.048 -0.048,-0.048c-0.025,0 -0.05,0.016 -0.05,0.048l0,0.652Zm-0.347,0.06c0.058,0 0.242,-0.192 0.299,-0.409c0.005,-0.017 0.007,-0.032 0.007,-0.046c0,-0.067 -0.051,-0.068 -0.14,-0.068c-0.051,0 -0.112,0 -0.143,0.001c-0.027,0.001 -0.041,0.024 -0.041,0.047c0,0.022 0.014,0.044 0.041,0.044l0.002,0c0.031,-0.001 0.093,-0.003 0.14,-0.003l0.021,0c0.009,0 0.016,0.002 0.016,0.012c0,0.039 -0.085,0.246 -0.229,0.332c-0.018,0.011 -0.025,0.025 -0.025,0.039c0,0.026 0.024,0.051 0.052,0.051Z" style="fill-rule:nonzero;"/></g><g transform="matrix(25,0,0,25,181.093,39.4125)"><path d="M0.81,-0.454l0,0.041c0,0.063 0.001,0.132 0.001,0.199c0,0.045 -0.001,0.088 -0.002,0.128c-0.001,0.049 -0.026,0.061 -0.059,0.061c-0.016,0 -0.034,-0.003 -0.053,-0.006c-0.003,0 -0.005,-0.001 -0.008,-0.001c-0.025,0 -0.039,0.021 -0.039,0.044c0,0.044 0.036,0.053 0.106,0.053c0.114,0 0.149,-0.062 0.149,-0.133c0,-0.035 -0.001,-0.077 -0.001,-0.124c0,-0.127 -0.002,-0.282 -0.002,-0.432l0,-0.075c0,-0.045 -0.031,-0.085 -0.105,-0.089c-0.017,-0.001 -0.045,-0.001 -0.074,-0.001c-0.039,-0 -0.081,-0 -0.1,0.001c-0.051,0.002 -0.087,0.034 -0.089,0.079c-0.001,0.035 -0.002,0.071 -0.002,0.106c0,0.021 0,0.043 0.001,0.063c0.003,0.088 0.086,0.088 0.204,0.088c0.029,0 0.055,-0.001 0.073,-0.002Zm-0.132,0.317c0.001,-0.021 0.001,-0.045 0.001,-0.071c0,-0.041 -0.001,-0.085 -0.004,-0.12c-0.003,-0.042 -0.042,-0.08 -0.091,-0.082c-0.029,-0.001 -0.062,-0.002 -0.095,-0.002c-0.027,0 -0.055,0.001 -0.081,0.002c-0.062,0.003 -0.091,0.045 -0.094,0.089c-0.002,0.04 -0.004,0.092 -0.004,0.137c-0,0.017 -0,0.034 0.001,0.048c0.002,0.052 0.039,0.088 0.099,0.093c0.027,0.002 0.057,0.003 0.087,0.003c0.029,0 0.059,-0.001 0.086,-0.003c0.054,-0.004 0.093,-0.044 0.095,-0.094Zm-0.487,0.162c0.003,-0.141 0.004,-0.281 0.004,-0.389l-0,-0.09c0.018,0.001 0.043,0.002 0.069,0.002c0.197,0 0.199,-0.025 0.199,-0.151c-0,-0.035 -0.001,-0.071 -0.002,-0.106c-0.002,-0.045 -0.04,-0.077 -0.091,-0.079c-0.019,-0.001 -0.059,-0.001 -0.097,-0.001c-0.102,0 -0.171,0 -0.171,0.098c-0.002,0.217 -0,0.533 -0.007,0.716l-0,0.002c-0,0.027 0.024,0.041 0.048,0.041c0.024,0 0.048,-0.014 0.048,-0.043Zm0.429,-0.678c-0,-0.01 0.001,-0.021 0.001,-0.03c0.002,-0.032 0.013,-0.032 0.093,-0.032c0.092,0 0.094,0.001 0.094,0.062l-0.188,0Zm0.19,0.127c-0.014,0.001 -0.046,0.001 -0.079,0.001c-0.106,0 -0.109,-0.004 -0.11,-0.032c-0,-0.009 -0.001,-0.019 -0.001,-0.03l0.19,0l0,0.061Zm-0.615,-0.127c-0,-0.008 0.001,-0.016 0.001,-0.023c0.002,-0.036 0.009,-0.039 0.091,-0.039c0.08,0 0.085,0.003 0.087,0.031c-0,0.01 0.001,0.02 0.001,0.031l-0.18,0Zm0.18,0.066c-0,0.011 -0.001,0.021 -0.001,0.03c-0.001,0.028 -0.008,0.032 -0.105,0.032c-0.03,0 -0.06,0 -0.074,-0.001l-0,-0.061l0.18,0Zm0.014,0.319c-0,-0.011 0.002,-0.021 0.002,-0.03c0.001,-0.019 0.011,-0.039 0.039,-0.04c0.024,-0.001 0.051,-0.001 0.076,-0.001c0.068,0 0.087,0.003 0.089,0.04c0,0.009 0.002,0.019 0.002,0.031l-0.208,0Zm0.209,0.071c0,0.014 -0.001,0.028 -0.001,0.039c-0.002,0.039 -0.031,0.04 -0.105,0.04c-0.103,0 -0.104,-0.001 -0.104,-0.079l0.21,0Z" style="fill-rule:nonzero;"/></g></g><g transform="matrix(1,0,0,1,-36.8825,18.2116)"><g transform="matrix(10.8333,0,0,10.8333,82.6595,27.8289)"><path d="M0.26,0.005c0.016,0 0.09,0.001 0.132,0.001c0.125,0 0.161,-0.042 0.191,-0.119c0.016,-0.037 0.02,-0.046 0.02,-0.059c0,-0.034 -0.031,-0.055 -0.06,-0.055c-0.022,0 -0.043,0.011 -0.052,0.035c-0.025,0.069 -0.046,0.097 -0.105,0.097l-0.145,0c-0.023,-0.002 -0.025,-0.011 -0.026,-0.028c-0.002,-0.019 -0.002,-0.078 -0.002,-0.15c0,-0.118 0.002,-0.271 0.004,-0.353c0.001,-0.014 0.008,-0.017 0.017,-0.017c0.004,0 0.008,0.001 0.012,0.001l0.004,0c0.037,0 0.057,-0.026 0.057,-0.052c0,-0.027 -0.019,-0.053 -0.059,-0.053l-0.002,0c-0.027,0.001 -0.061,0.002 -0.094,0.002c-0.028,0 -0.054,-0.001 -0.075,-0.002l-0.005,0c-0.036,0 -0.055,0.026 -0.055,0.052c0,0.01 0.009,0.056 0.06,0.053c0.005,0 0.009,-0.001 0.013,-0.001l0.004,0c0.01,0 0.015,0.004 0.015,0.018l0,0.148c0,0.377 -0.001,0.378 -0.022,0.378l-0.006,-0c-0.036,-0 -0.055,0.026 -0.055,0.052c0,0.026 0.018,0.052 0.055,0.052l0.004,-0c0.019,-0.001 0.042,-0.001 0.067,-0.001c0.034,-0 0.071,-0 0.104,0.001l0.004,-0Z" style="fill-rule:nonzero;"/></g><g transform="matrix(10.8333,0,0,10.8333,89.3328,27.8289)"><path d="M0.212,-0.122c-0.002,-0.023 -0.002,-0.106 -0.002,-0.197c0,-0.011 0.003,-0.016 0.015,-0.016c0.031,0 0.081,0.001 0.1,0.001c0.018,0 0.021,0.01 0.021,0.021c0,0.004 -0.001,0.009 -0.001,0.013l0,0.004c0,0.032 0.025,0.049 0.05,0.049c0.025,0 0.051,-0.016 0.051,-0.049l0,-0.004c-0.001,-0.022 -0.002,-0.053 -0.002,-0.084c0,-0.026 0.001,-0.053 0.002,-0.076l0,-0.004c0,-0.034 -0.024,-0.051 -0.049,-0.051c-0.02,0 -0.053,0.014 -0.052,0.055c0,0.017 -0.003,0.031 -0.02,0.032c-0.017,0.001 -0.068,0.001 -0.1,0.001c-0.009,0 -0.014,-0.003 -0.014,-0.013c0.001,-0.067 0.002,-0.137 0.003,-0.182c0.001,-0.022 0.007,-0.026 0.027,-0.026c0.013,0 0.09,0.001 0.132,0.001c0.05,0 0.062,0.014 0.069,0.05c0.005,0.03 0.029,0.044 0.053,0.044c0.027,0 0.055,-0.018 0.055,-0.052c0,-0.007 -0.002,-0.014 -0.004,-0.022c-0.021,-0.075 -0.036,-0.12 -0.159,-0.12c-0.053,0 -0.138,0.002 -0.212,0.002c-0.037,0 -0.071,-0.001 -0.098,-0.002l-0.004,0c-0.037,0 -0.056,0.026 -0.056,0.051c0,0.046 0.041,0.051 0.064,0.051c0.022,0 0.026,0.008 0.026,0.023l0,0.106c0,0.145 -0.001,0.333 -0.006,0.399c-0.001,0.015 -0.006,0.02 -0.023,0.02l-0.01,-0c-0.036,-0 -0.055,0.026 -0.055,0.052c0,0.041 0.038,0.053 0.06,0.052c0.037,-0.002 0.082,-0.002 0.13,-0.002c0.07,-0 0.145,0.001 0.199,0.001c0.106,-0 0.143,-0.034 0.163,-0.086c0.008,-0.019 0.02,-0.053 0.02,-0.065c0,-0.033 -0.028,-0.053 -0.055,-0.053c-0.021,-0 -0.042,0.012 -0.05,0.039c-0.018,0.061 -0.024,0.065 -0.184,0.065c-0.077,-0 -0.083,-0.002 -0.084,-0.028Z" style="fill-rule:nonzero;"/></g><g transform="matrix(10.8333,0,0,10.8333,95.9303,27.8289)"><path d="M0.304,-0.626c0.002,0.056 0.002,0.117 0.002,0.178c0,0.123 -0.002,0.245 -0.002,0.326c0,0.022 -0.01,0.021 -0.028,0.022l-0.004,0c-0.036,0 -0.054,0.027 -0.054,0.054c0,0.032 0.025,0.055 0.058,0.053c0.023,-0.001 0.055,-0.002 0.088,-0.002c0.028,0 0.056,0.001 0.081,0.002l0.004,0c0.036,0 0.055,-0.027 0.055,-0.053c0,-0.027 -0.019,-0.054 -0.058,-0.054c-0.018,0 -0.028,-0.001 -0.028,-0.023c-0.001,-0.063 -0.002,-0.139 -0.002,-0.216c0,-0.106 0.001,-0.213 0.003,-0.287c0,-0.022 0.001,-0.022 0.083,-0.022c0.053,0 0.063,0.001 0.078,0.047c0.003,0.009 0.006,0.019 0.009,0.03c0.008,0.028 0.031,0.04 0.053,0.04c0.027,-0 0.055,-0.019 0.055,-0.053c0,-0.007 -0.001,-0.015 -0.004,-0.023c-0.007,-0.021 -0.018,-0.044 -0.024,-0.06c-0.021,-0.058 -0.063,-0.081 -0.142,-0.081l-0.01,0c-0.046,0.001 -0.118,0.002 -0.185,0.002c-0.055,0 -0.106,-0.001 -0.137,-0.002l-0.019,0c-0.106,0 -0.123,0.044 -0.155,0.14c-0.003,0.009 -0.005,0.018 -0.005,0.026c-0,0.033 0.027,0.052 0.054,0.052c0.022,-0 0.045,-0.013 0.053,-0.041c0.004,-0.012 0.006,-0.023 0.009,-0.032c0.013,-0.044 0.017,-0.045 0.103,-0.045c0.069,0 0.069,0 0.069,0.022Z" style="fill-rule:nonzero;"/></g><g transform="matrix(10.8333,0,0,10.8333,104.099,27.8289)"><path d="M0.304,-0.626c0.002,0.056 0.002,0.117 0.002,0.178c0,0.123 -0.002,0.245 -0.002,0.326c0,0.022 -0.01,0.021 -0.028,0.022l-0.004,0c-0.036,0 -0.054,0.027 -0.054,0.054c0,0.032 0.025,0.055 0.058,0.053c0.023,-0.001 0.055,-0.002 0.088,-0.002c0.028,0 0.056,0.001 0.081,0.002l0.004,0c0.036,0 0.055,-0.027 0.055,-0.053c0,-0.027 -0.019,-0.054 -0.058,-0.054c-0.018,0 -0.028,-0.001 -0.028,-0.023c-0.001,-0.063 -0.002,-0.139 -0.002,-0.216c0,-0.106 0.001,-0.213 0.003,-0.287c0,-0.022 0.001,-0.022 0.083,-0.022c0.053,0 0.063,0.001 0.078,0.047c0.003,0.009 0.006,0.019 0.009,0.03c0.008,0.028 0.031,0.04 0.053,0.04c0.027,-0 0.055,-0.019 0.055,-0.053c0,-0.007 -0.001,-0.015 -0.004,-0.023c-0.007,-0.021 -0.018,-0.044 -0.024,-0.06c-0.021,-0.058 -0.063,-0.081 -0.142,-0.081l-0.01,0c-0.046,0.001 -0.118,0.002 -0.185,0.002c-0.055,0 -0.106,-0.001 -0.137,-0.002l-0.019,0c-0.106,0 -0.123,0.044 -0.155,0.14c-0.003,0.009 -0.005,0.018 -0.005,0.026c-0,0.033 0.027,0.052 0.054,0.052c0.022,-0 0.045,-0.013 0.053,-0.041c0.004,-0.012 0.006,-0.023 0.009,-0.032c0.013,-0.044 0.017,-0.045 0.103,-0.045c0.069,0 0.069,0 0.069,0.022Z" style="fill-rule:nonzero;"/></g><g transform="matrix(10.8333,0,0,10.8333,111.834,27.8289)"><path d="M0.212,-0.122c-0.002,-0.023 -0.002,-0.106 -0.002,-0.197c0,-0.011 0.003,-0.016 0.015,-0.016c0.031,0 0.081,0.001 0.1,0.001c0.018,0 0.021,0.01 0.021,0.021c0,0.004 -0.001,0.009 -0.001,0.013l0,0.004c0,0.032 0.025,0.049 0.05,0.049c0.025,0 0.051,-0.016 0.051,-0.049l0,-0.004c-0.001,-0.022 -0.002,-0.053 -0.002,-0.084c0,-0.026 0.001,-0.053 0.002,-0.076l0,-0.004c0,-0.034 -0.024,-0.051 -0.049,-0.051c-0.02,0 -0.053,0.014 -0.052,0.055c0,0.017 -0.003,0.031 -0.02,0.032c-0.017,0.001 -0.068,0.001 -0.1,0.001c-0.009,0 -0.014,-0.003 -0.014,-0.013c0.001,-0.067 0.002,-0.137 0.003,-0.182c0.001,-0.022 0.007,-0.026 0.027,-0.026c0.013,0 0.09,0.001 0.132,0.001c0.05,0 0.062,0.014 0.069,0.05c0.005,0.03 0.029,0.044 0.053,0.044c0.027,0 0.055,-0.018 0.055,-0.052c0,-0.007 -0.002,-0.014 -0.004,-0.022c-0.021,-0.075 -0.036,-0.12 -0.159,-0.12c-0.053,0 -0.138,0.002 -0.212,0.002c-0.037,0 -0.071,-0.001 -0.098,-0.002l-0.004,0c-0.037,0 -0.056,0.026 -0.056,0.051c0,0.046 0.041,0.051 0.064,0.051c0.022,0 0.026,0.008 0.026,0.023l0,0.106c0,0.145 -0.001,0.333 -0.006,0.399c-0.001,0.015 -0.006,0.02 -0.023,0.02l-0.01,-0c-0.036,-0 -0.055,0.026 -0.055,0.052c0,0.041 0.038,0.053 0.06,0.052c0.037,-0.002 0.082,-0.002 0.13,-0.002c0.07,-0 0.145,0.001 0.199,0.001c0.106,-0 0.143,-0.034 0.163,-0.086c0.008,-0.019 0.02,-0.053 0.02,-0.065c0,-0.033 -0.028,-0.053 -0.055,-0.053c-0.021,-0 -0.042,0.012 -0.05,0.039c-0.018,0.061 -0.024,0.065 -0.184,0.065c-0.077,-0 -0.083,-0.002 -0.084,-0.028Z" style="fill-rule:nonzero;"/></g><g transform="matrix(10.8333,0,0,10.8333,118.431,27.8289)"><path d="M0.625,0.006c0.037,0 0.06,-0.025 0.06,-0.054c0,-0.024 -0.016,-0.047 -0.052,-0.05c-0.035,-0.003 -0.036,-0.004 -0.125,-0.147c-0.023,-0.037 -0.048,-0.074 -0.079,-0.111c-0.003,-0.003 -0.004,-0.006 -0.004,-0.008c0,-0.005 0.007,-0.007 0.015,-0.008c0.088,-0.017 0.143,-0.099 0.143,-0.181c0,-0.078 -0.05,-0.179 -0.225,-0.192c-0.024,-0.002 -0.048,-0.002 -0.072,-0.002c-0.047,-0 -0.092,0.002 -0.139,0.002c-0.021,-0 -0.042,-0.001 -0.064,-0.002l-0.005,-0c-0.036,-0 -0.054,0.025 -0.054,0.051c0,0.011 0.004,0.052 0.062,0.052c0.015,-0 0.019,0.008 0.019,0.024c0.001,0.045 0.002,0.15 0.002,0.254c0,0.104 -0.001,0.207 -0.003,0.25c-0.001,0.012 -0.004,0.024 -0.02,0.024l-0.004,-0c-0.038,-0 -0.057,0.025 -0.057,0.05c0,0.023 0.017,0.051 0.059,0.049c0.01,-0.001 0.044,-0.002 0.083,-0.002c0.025,-0 0.051,0.001 0.075,0.002l0.004,-0c0.033,-0 0.053,-0.026 0.053,-0.051c0,-0.024 -0.017,-0.048 -0.056,-0.049c-0.021,-0.001 -0.032,-0.007 -0.032,-0.022c-0.001,-0.066 -0.003,-0.161 -0.003,-0.213c0,-0.021 0.019,-0.022 0.05,-0.022c0.009,-0 0.018,-0 0.029,0.001c0.038,-0 0.086,0.075 0.184,0.242c0.001,0.002 0.002,0.004 0.002,0.006c0,0.008 -0.011,0.012 -0.018,0.014c-0.025,0.006 -0.038,0.027 -0.038,0.047c0,0.023 0.017,0.046 0.052,0.046l0.004,-0c0.022,-0.001 0.047,-0.001 0.073,-0.001c0.026,-0 0.053,-0 0.081,0.001Zm-0.27,-0.441c-0.018,0.001 -0.043,0.002 -0.066,0.002c-0.063,-0 -0.081,-0 -0.081,-0.023l0,-0.119c0,-0.072 0.002,-0.074 0.033,-0.077c0.012,-0.001 0.029,-0.001 0.046,-0.001c0.024,-0 0.048,-0 0.061,0.001c0.088,0.005 0.126,0.052 0.126,0.101c0,0.053 -0.045,0.109 -0.119,0.116Z" style="fill-rule:nonzero;"/></g><g transform="matrix(10.8333,0,0,10.8333,126.004,27.8289)"><path d="M0.541,-0.199c0,-0.073 -0.042,-0.15 -0.142,-0.204c-0.047,-0.025 -0.115,-0.056 -0.157,-0.078c-0.045,-0.024 -0.065,-0.058 -0.065,-0.091c-0,-0.046 0.04,-0.087 0.106,-0.087c0.073,0 0.119,0.034 0.119,0.063c0,0.003 -0.001,0.007 -0.001,0.011l0,0.004c0,0.029 0.027,0.044 0.053,0.044c0.018,0 0.056,-0.01 0.054,-0.048c-0.001,-0.018 -0.002,-0.04 -0.002,-0.063c0,-0.02 0.001,-0.039 0.002,-0.058l0,-0.003c0,-0.028 -0.027,-0.042 -0.054,-0.042c-0.016,0 -0.033,0.005 -0.043,0.016c-0.002,0.002 -0.006,0.003 -0.009,0.003c-0.003,0 -0.005,0 -0.007,-0.001c-0.034,-0.016 -0.072,-0.024 -0.111,-0.024c-0.137,0 -0.216,0.092 -0.216,0.188c-0,0.069 0.04,0.14 0.128,0.18c0.053,0.024 0.109,0.055 0.153,0.08c0.053,0.03 0.077,0.073 0.077,0.113c-0,0.045 -0.036,0.11 -0.138,0.11c-0.059,0 -0.144,-0.027 -0.144,-0.084l0,-0.008c0,-0.031 -0.026,-0.047 -0.053,-0.047c-0.027,0 -0.054,0.015 -0.054,0.048l-0,0.002c0.001,0.021 0.002,0.049 0.002,0.075c-0,0.021 -0.001,0.042 -0.002,0.059l-0,0.004c-0,0.032 0.026,0.049 0.053,0.049c0.017,0 0.034,-0.007 0.044,-0.02c0.003,-0.004 0.006,-0.007 0.01,-0.007c0.003,0 0.005,0.001 0.009,0.003c0.038,0.019 0.083,0.03 0.137,0.03c0.148,0 0.251,-0.103 0.251,-0.217Z" style="fill-rule:nonzero;"/></g><g transform="matrix(10.8333,0,0,10.8333,131.908,27.8289)"><path d="M0.201,-0.061c0,-0.043 -0.038,-0.067 -0.071,-0.067c-0.028,0 -0.07,0.019 -0.07,0.068c0,0.058 0.043,0.07 0.07,0.07c0.05,-0 0.071,-0.045 0.071,-0.071Z" style="fill-rule:nonzero;"/></g><g transform="matrix(10.8333,0,0,10.8333,134.735,27.8289)"><path d="M0.588,-0.06c0.018,0.047 0.056,0.071 0.094,0.071c0.036,-0 0.071,-0.022 0.088,-0.069c0.04,-0.113 0.154,-0.393 0.224,-0.576c0.005,-0.013 0.016,-0.016 0.027,-0.016c0.028,0 0.042,-0.024 0.042,-0.049c0,-0.024 -0.014,-0.048 -0.04,-0.048l-0.002,0c-0.031,0.001 -0.063,0.002 -0.094,0.002c-0.025,0 -0.051,-0.001 -0.074,-0.002l-0.002,0c-0.027,0 -0.04,0.024 -0.04,0.049c0,0.026 0.014,0.047 0.043,0.048c0.008,0 0.018,0.007 0.018,0.018c0,0.006 -0.002,0.016 -0.18,0.494c-0.005,0.013 -0.01,0.021 -0.015,0.021c-0.006,0 -0.018,-0.009 -0.085,-0.183c0.044,-0.113 0.092,-0.24 0.129,-0.336c0.005,-0.012 0.011,-0.015 0.021,-0.016c0.023,-0.002 0.036,-0.025 0.036,-0.048c0,-0.024 -0.013,-0.047 -0.042,-0.047l-0.002,0c-0.031,0.001 -0.052,0.002 -0.074,0.002c-0.018,0 -0.036,-0.001 -0.059,-0.002l-0.003,0c-0.028,0 -0.043,0.024 -0.043,0.048c0,0.024 0.014,0.047 0.044,0.047c0.008,0 0.012,0.004 0.012,0.011c0,0.005 -0.026,0.1 -0.067,0.214c-0.021,-0.059 -0.067,-0.197 -0.067,-0.214c0,-0.005 0.003,-0.01 0.011,-0.011c0.02,-0.004 0.03,-0.025 0.03,-0.046c0,-0.024 -0.013,-0.049 -0.039,-0.049l-0.002,0c-0.019,0.001 -0.036,0.001 -0.052,0.001c-0.031,0 -0.056,-0.001 -0.075,-0.001l-0.001,0c-0.026,0 -0.039,0.024 -0.039,0.048c-0,0.023 0.012,0.046 0.036,0.047c0.01,0.001 0.016,0.006 0.023,0.024c0.027,0.073 0.078,0.204 0.126,0.328c-0.062,0.158 -0.078,0.185 -0.088,0.185c-0.006,0 -0.011,-0.009 -0.017,-0.025c-0.168,-0.444 -0.178,-0.489 -0.178,-0.495c-0,-0.008 0.004,-0.013 0.015,-0.015c0.031,0 0.047,-0.024 0.047,-0.048c-0,-0.024 -0.017,-0.049 -0.052,-0.049l-0.002,0c-0.031,0.001 -0.058,0.002 -0.085,0.002c-0.022,0 -0.045,-0.001 -0.068,-0.002l-0.003,0c-0.032,0 -0.048,0.024 -0.048,0.049c-0,0.026 0.015,0.048 0.053,0.048c0.012,0 0.023,0.01 0.028,0.024c0.047,0.138 0.171,0.454 0.22,0.566c0.02,0.046 0.058,0.07 0.095,0.07c0.035,0 0.069,-0.022 0.087,-0.068c0.01,-0.027 0.025,-0.067 0.045,-0.119l0.044,0.117Z" style="fill:#005caf;fill-rule:nonzero;"/></g><g transform="matrix(10.8333,0,0,10.8333,146.435,27.8289)"><path d="M0.08,-0.102l-0.004,0c-0.037,0 -0.056,0.026 -0.056,0.053c0,0.027 0.019,0.053 0.056,0.053l0.004,0c0.025,-0.001 0.06,-0.002 0.097,-0.002c0.03,0 0.06,0.001 0.086,0.002l0.004,0c0.038,0 0.057,-0.026 0.057,-0.052c0,-0.027 -0.019,-0.054 -0.059,-0.054l-0.002,0c-0.004,0 -0.012,0.001 -0.017,0.001c-0.013,0 -0.016,-0.012 -0.016,-0.022c-0.002,-0.099 -0.003,-0.199 -0.003,-0.295c0,-0.069 0.001,-0.136 0.002,-0.2c0,-0.014 0.005,-0.022 0.021,-0.022l0.018,0c0.038,0 0.057,-0.027 0.057,-0.053c0,-0.027 -0.019,-0.053 -0.059,-0.053l-0.002,0c-0.027,0.001 -0.066,0.002 -0.103,0.002c-0.03,0 -0.06,-0.001 -0.081,-0.002l-0.005,0c-0.036,0 -0.055,0.026 -0.055,0.053c0,0.016 0.012,0.055 0.06,0.053l0.017,-0.001c0.015,0 0.019,0.009 0.019,0.023c0.002,0.062 0.002,0.128 0.002,0.194c0,0.101 -0.001,0.204 -0.003,0.302c0,0.016 -0.005,0.021 -0.019,0.021l-0.004,-0l-0.012,-0.001Z" style="fill:#005caf;fill-rule:nonzero;"/></g><g transform="matrix(10.8333,0,0,10.8333,150.184,27.8289)"><path d="M0.26,0.005c0.016,0 0.09,0.001 0.132,0.001c0.125,0 0.161,-0.042 0.191,-0.119c0.016,-0.037 0.02,-0.046 0.02,-0.059c0,-0.034 -0.031,-0.055 -0.06,-0.055c-0.022,0 -0.043,0.011 -0.052,0.035c-0.025,0.069 -0.046,0.097 -0.105,0.097l-0.145,0c-0.023,-0.002 -0.025,-0.011 -0.026,-0.028c-0.002,-0.019 -0.002,-0.078 -0.002,-0.15c0,-0.118 0.002,-0.271 0.004,-0.353c0.001,-0.014 0.008,-0.017 0.017,-0.017c0.004,0 0.008,0.001 0.012,0.001l0.004,0c0.037,0 0.057,-0.026 0.057,-0.052c0,-0.027 -0.019,-0.053 -0.059,-0.053l-0.002,0c-0.027,0.001 -0.061,0.002 -0.094,0.002c-0.028,0 -0.054,-0.001 -0.075,-0.002l-0.005,0c-0.036,0 -0.055,0.026 -0.055,0.052c0,0.01 0.009,0.056 0.06,0.053c0.005,0 0.009,-0.001 0.013,-0.001l0.004,0c0.01,0 0.015,0.004 0.015,0.018l0,0.148c0,0.377 -0.001,0.378 -0.022,0.378l-0.006,-0c-0.036,-0 -0.055,0.026 -0.055,0.052c0,0.026 0.018,0.052 0.055,0.052l0.004,-0c0.019,-0.001 0.042,-0.001 0.067,-0.001c0.034,-0 0.071,-0 0.104,0.001l0.004,-0Z" style="fill:#005caf;fill-rule:nonzero;"/></g><g transform="matrix(10.8333,0,0,10.8333,156.857,27.8289)"><path d="M0.26,0.005c0.016,0 0.09,0.001 0.132,0.001c0.125,0 0.161,-0.042 0.191,-0.119c0.016,-0.037 0.02,-0.046 0.02,-0.059c0,-0.034 -0.031,-0.055 -0.06,-0.055c-0.022,0 -0.043,0.011 -0.052,0.035c-0.025,0.069 -0.046,0.097 -0.105,0.097l-0.145,0c-0.023,-0.002 -0.025,-0.011 -0.026,-0.028c-0.002,-0.019 -0.002,-0.078 -0.002,-0.15c0,-0.118 0.002,-0.271 0.004,-0.353c0.001,-0.014 0.008,-0.017 0.017,-0.017c0.004,0 0.008,0.001 0.012,0.001l0.004,0c0.037,0 0.057,-0.026 0.057,-0.052c0,-0.027 -0.019,-0.053 -0.059,-0.053l-0.002,0c-0.027,0.001 -0.061,0.002 -0.094,0.002c-0.028,0 -0.054,-0.001 -0.075,-0.002l-0.005,0c-0.036,0 -0.055,0.026 -0.055,0.052c0,0.01 0.009,0.056 0.06,0.053c0.005,0 0.009,-0.001 0.013,-0.001l0.004,0c0.01,0 0.015,0.004 0.015,0.018l0,0.148c0,0.377 -0.001,0.378 -0.022,0.378l-0.006,-0c-0.036,-0 -0.055,0.026 -0.055,0.052c0,0.026 0.018,0.052 0.055,0.052l0.004,-0c0.019,-0.001 0.042,-0.001 0.067,-0.001c0.034,-0 0.071,-0 0.104,0.001l0.004,-0Z" style="fill:#005caf;fill-rule:nonzero;"/></g><g transform="matrix(10.8333,0,0,10.8333,163.53,27.8289)"><path d="M0.26,0.005c0.016,0 0.09,0.001 0.132,0.001c0.125,0 0.161,-0.042 0.191,-0.119c0.016,-0.037 0.02,-0.046 0.02,-0.059c0,-0.034 -0.031,-0.055 -0.06,-0.055c-0.022,0 -0.043,0.011 -0.052,0.035c-0.025,0.069 -0.046,0.097 -0.105,0.097l-0.145,0c-0.023,-0.002 -0.025,-0.011 -0.026,-0.028c-0.002,-0.019 -0.002,-0.078 -0.002,-0.15c0,-0.118 0.002,-0.271 0.004,-0.353c0.001,-0.014 0.008,-0.017 0.017,-0.017c0.004,0 0.008,0.001 0.012,0.001l0.004,0c0.037,0 0.057,-0.026 0.057,-0.052c0,-0.027 -0.019,-0.053 -0.059,-0.053l-0.002,0c-0.027,0.001 -0.061,0.002 -0.094,0.002c-0.028,0 -0.054,-0.001 -0.075,-0.002l-0.005,0c-0.036,0 -0.055,0.026 -0.055,0.052c0,0.01 0.009,0.056 0.06,0.053c0.005,0 0.009,-0.001 0.013,-0.001l0.004,0c0.01,0 0.015,0.004 0.015,0.018l0,0.148c0,0.377 -0.001,0.378 -0.022,0.378l-0.006,-0c-0.036,-0 -0.055,0.026 -0.055,0.052c0,0.026 0.018,0.052 0.055,0.052l0.004,-0c0.019,-0.001 0.042,-0.001 0.067,-0.001c0.034,-0 0.071,-0 0.104,0.001l0.004,-0Z" style="fill:#005caf;fill-rule:nonzero;"/></g><g transform="matrix(10.8333,0,0,10.8333,170.204,27.8289)"><path d="M0.08,-0.102l-0.004,0c-0.037,0 -0.056,0.026 -0.056,0.053c0,0.027 0.019,0.053 0.056,0.053l0.004,0c0.025,-0.001 0.06,-0.002 0.097,-0.002c0.03,0 0.06,0.001 0.086,0.002l0.004,0c0.038,0 0.057,-0.026 0.057,-0.052c0,-0.027 -0.019,-0.054 -0.059,-0.054l-0.002,0c-0.004,0 -0.012,0.001 -0.017,0.001c-0.013,0 -0.016,-0.012 -0.016,-0.022c-0.002,-0.099 -0.003,-0.199 -0.003,-0.295c0,-0.069 0.001,-0.136 0.002,-0.2c0,-0.014 0.005,-0.022 0.021,-0.022l0.018,0c0.038,0 0.057,-0.027 0.057,-0.053c0,-0.027 -0.019,-0.053 -0.059,-0.053l-0.002,0c-0.027,0.001 -0.066,0.002 -0.103,0.002c-0.03,0 -0.06,-0.001 -0.081,-0.002l-0.005,0c-0.036,0 -0.055,0.026 -0.055,0.053c0,0.016 0.012,0.055 0.06,0.053l0.017,-0.001c0.015,0 0.019,0.009 0.019,0.023c0.002,0.062 0.002,0.128 0.002,0.194c0,0.101 -0.001,0.204 -0.003,0.302c0,0.016 -0.005,0.021 -0.019,0.021l-0.004,-0l-0.012,-0.001Z" style="fill:#005caf;fill-rule:nonzero;"/></g><g transform="matrix(10.8333,0,0,10.8333,173.952,27.8289)"><path d="M0.571,-0.642c0.017,0 0.018,0.004 0.018,0.02l-0,0.064c-0,0.085 -0.001,0.17 -0.001,0.257c-0,0.138 -0.098,0.21 -0.194,0.21c-0.093,0 -0.184,-0.066 -0.184,-0.202l-0,-0.052c-0,-0.078 -0.001,-0.154 -0.001,-0.231l-0,-0.048c-0,-0.014 0.002,-0.019 0.015,-0.019l0.004,0l0.014,0.001l0.004,0c0.037,0 0.056,-0.026 0.056,-0.052c-0,-0.027 -0.018,-0.053 -0.058,-0.053l-0.002,0c-0.027,0.001 -0.061,0.002 -0.094,0.002c-0.028,0 -0.054,-0.001 -0.075,-0.002l-0.005,0c-0.036,0 -0.055,0.026 -0.055,0.052c-0,0.024 0.017,0.055 0.06,0.053l0.012,-0.001l0.002,0c0.011,0 0.013,0.007 0.013,0.017c0.001,0.033 0.001,0.067 0.001,0.101c-0,0.075 -0.001,0.151 -0.002,0.225l-0,0.005c-0,0.209 0.149,0.313 0.299,0.313c0.147,0 0.307,-0.104 0.302,-0.322c-0.001,-0.072 -0.002,-0.133 -0.002,-0.197c0,-0.039 0,-0.08 0.001,-0.125c0,-0.014 0.005,-0.017 0.014,-0.017c0.003,0 0.006,0.001 0.01,0.001l0.004,0c0.037,0 0.057,-0.026 0.057,-0.052c-0,-0.027 -0.019,-0.053 -0.059,-0.053l-0.002,0c-0.027,0.001 -0.061,0.002 -0.094,0.002c-0.027,0 -0.053,-0.001 -0.074,-0.002l-0.005,0c-0.036,0 -0.055,0.025 -0.055,0.05c-0,0.027 0.02,0.054 0.06,0.055l0.016,0Z" style="fill:#005caf;fill-rule:nonzero;"/></g><g transform="matrix(10.8333,0,0,10.8333,181.373,27.8289)"><path d="M0.201,-0.061c0,-0.043 -0.038,-0.067 -0.071,-0.067c-0.028,0 -0.07,0.019 -0.07,0.068c0,0.058 0.043,0.07 0.07,0.07c0.05,-0 0.071,-0.045 0.071,-0.071Z" style="fill:#005caf;fill-rule:nonzero;"/></g><g transform="matrix(10.8333,0,0,10.8333,184.2,27.8289)"><path d="M0.758,-0.745c-0.055,0 -0.089,0.035 -0.103,0.075c-0.04,0.115 -0.119,0.395 -0.157,0.487c-0.003,0.008 -0.007,0.012 -0.011,0.012c-0.01,0 -0.021,-0.026 -0.082,-0.226c-0.03,-0.099 -0.062,-0.208 -0.081,-0.268c-0.018,-0.058 -0.065,-0.081 -0.11,-0.081l-0.005,0c-0.014,0 -0.03,0.001 -0.045,0.001c-0.021,0 -0.04,-0.001 -0.055,-0.002l-0.006,0c-0.035,0 -0.053,0.026 -0.053,0.053c0,0.016 0.003,0.053 0.063,0.053c0.014,-0 0.016,0.004 0.016,0.015l0,0.01c-0.007,0.131 -0.02,0.338 -0.027,0.498c-0.001,0.015 -0.007,0.02 -0.02,0.02l-0.008,-0c-0.036,-0 -0.055,0.026 -0.055,0.052c-0,0.013 0.011,0.054 0.06,0.052c0.024,-0.001 0.052,-0.002 0.081,-0.002c0.025,-0 0.05,0.001 0.076,0.002l0.004,-0c0.037,-0 0.057,-0.026 0.057,-0.052c-0,-0.026 -0.019,-0.052 -0.059,-0.052l-0.002,-0c-0.02,-0.002 -0.027,-0.005 -0.027,-0.019c-0,-0.025 0.011,-0.372 0.017,-0.455c0.001,-0.009 0.004,-0.038 0.013,-0.038c0.005,-0 0.011,0.01 0.016,0.028c0.037,0.118 0.125,0.437 0.157,0.514c0.016,0.039 0.043,0.055 0.07,0.055c0.032,-0 0.064,-0.022 0.077,-0.056c0.041,-0.108 0.144,-0.434 0.166,-0.517c0.005,-0.021 0.013,-0.035 0.019,-0.035c0.005,-0 0.009,0.011 0.01,0.038c-0,-0 0.004,0.301 0.013,0.466l-0,0.003c-0,0.013 -0.007,0.016 -0.017,0.016l-0.011,-0c-0.036,-0 -0.055,0.026 -0.055,0.052c0,0.013 0.011,0.054 0.06,0.052c0.024,-0.001 0.052,-0.002 0.081,-0.002c0.025,-0 0.05,0.001 0.076,0.002l0.004,-0c0.037,-0 0.056,-0.027 0.056,-0.053c0,-0.026 -0.018,-0.051 -0.054,-0.051l-0.006,-0c-0.013,-0.001 -0.019,-0.004 -0.02,-0.015c-0.009,-0.14 -0.025,-0.377 -0.027,-0.506c0,-0.017 0.001,-0.022 0.018,-0.024c0.029,-0.004 0.043,-0.027 0.043,-0.051c0,-0.027 -0.018,-0.053 -0.054,-0.053l-0.003,-0c-0.022,0.001 -0.054,0.002 -0.08,0.002l-0.02,-0Z" style="fill:#005caf;fill-rule:nonzero;"/></g><g transform="matrix(10.8333,0,0,10.8333,194.828,27.8289)"><path d="M0.212,-0.122c-0.002,-0.023 -0.002,-0.106 -0.002,-0.197c0,-0.011 0.003,-0.016 0.015,-0.016c0.031,0 0.081,0.001 0.1,0.001c0.018,0 0.021,0.01 0.021,0.021c0,0.004 -0.001,0.009 -0.001,0.013l0,0.004c0,0.032 0.025,0.049 0.05,0.049c0.025,0 0.051,-0.016 0.051,-0.049l0,-0.004c-0.001,-0.022 -0.002,-0.053 -0.002,-0.084c0,-0.026 0.001,-0.053 0.002,-0.076l0,-0.004c0,-0.034 -0.024,-0.051 -0.049,-0.051c-0.02,0 -0.053,0.014 -0.052,0.055c0,0.017 -0.003,0.031 -0.02,0.032c-0.017,0.001 -0.068,0.001 -0.1,0.001c-0.009,0 -0.014,-0.003 -0.014,-0.013c0.001,-0.067 0.002,-0.137 0.003,-0.182c0.001,-0.022 0.007,-0.026 0.027,-0.026c0.013,0 0.09,0.001 0.132,0.001c0.05,0 0.062,0.014 0.069,0.05c0.005,0.03 0.029,0.044 0.053,0.044c0.027,0 0.055,-0.018 0.055,-0.052c0,-0.007 -0.002,-0.014 -0.004,-0.022c-0.021,-0.075 -0.036,-0.12 -0.159,-0.12c-0.053,0 -0.138,0.002 -0.212,0.002c-0.037,0 -0.071,-0.001 -0.098,-0.002l-0.004,0c-0.037,0 -0.056,0.026 -0.056,0.051c0,0.046 0.041,0.051 0.064,0.051c0.022,0 0.026,0.008 0.026,0.023l0,0.106c0,0.145 -0.001,0.333 -0.006,0.399c-0.001,0.015 -0.006,0.02 -0.023,0.02l-0.01,-0c-0.036,-0 -0.055,0.026 -0.055,0.052c0,0.041 0.038,0.053 0.06,0.052c0.037,-0.002 0.082,-0.002 0.13,-0.002c0.07,-0 0.145,0.001 0.199,0.001c0.106,-0 0.143,-0.034 0.163,-0.086c0.008,-0.019 0.02,-0.053 0.02,-0.065c0,-0.033 -0.028,-0.053 -0.055,-0.053c-0.021,-0 -0.042,0.012 -0.05,0.039c-0.018,0.061 -0.024,0.065 -0.184,0.065c-0.077,-0 -0.083,-0.002 -0.084,-0.028Z" style="fill:#005caf;fill-rule:nonzero;"/></g></g></g></g></svg>